<mxfile host="app.diagrams.net" modified="2022-04-25T13:20:00.242Z" agent="5.0 (Macintosh)" etag="d3jBGXNHqxlnYZ7rMdk1" version="17.4.4" type="github">
  <diagram id="Oy0HTshUDJHeNZb5OaVK" name="Page-1">
    <mxGraphModel dx="1424" dy="1166" grid="1" gridSize="10" guides="1" tooltips="1" connect="1" arrows="1" fold="1" page="1" pageScale="1" pageWidth="1169" pageHeight="827" math="0" shadow="0">
      <root>
        <mxCell id="0" />
        <mxCell id="1" parent="0" />
        <mxCell id="1Rn5REZnz-L7d858gdaj-1" value="" style="html=1;outlineConnect=0;whiteSpace=wrap;fillColor=#ffff99;verticalLabelPosition=bottom;verticalAlign=top;align=center;shape=mxgraph.archimate3.actor;" vertex="1" parent="1">
          <mxGeometry x="40" y="149.5" width="30" height="60" as="geometry" />
        </mxCell>
        <mxCell id="1Rn5REZnz-L7d858gdaj-2" value="" style="html=1;endArrow=block;dashed=1;elbow=vertical;endFill=1;dashPattern=6 4;rounded=0;" edge="1" parent="1" source="1Rn5REZnz-L7d858gdaj-1" target="1Rn5REZnz-L7d858gdaj-3">
          <mxGeometry width="160" relative="1" as="geometry">
            <mxPoint x="410" y="581.453125" as="sourcePoint" />
            <mxPoint x="590" y="616.140625" as="targetPoint" />
          </mxGeometry>
        </mxCell>
        <mxCell id="1Rn5REZnz-L7d858gdaj-8" value="" style="edgeStyle=orthogonalEdgeStyle;rounded=0;orthogonalLoop=1;jettySize=auto;html=1;" edge="1" parent="1" source="1Rn5REZnz-L7d858gdaj-3" target="1Rn5REZnz-L7d858gdaj-4">
          <mxGeometry relative="1" as="geometry" />
        </mxCell>
        <mxCell id="1Rn5REZnz-L7d858gdaj-3" value="UI Form" style="html=1;outlineConnect=0;whiteSpace=wrap;fillColor=#dae8fc;shape=mxgraph.archimate3.application;appType=interface;archiType=square;fontSize=11;strokeColor=#6c8ebf;" vertex="1" parent="1">
          <mxGeometry x="160" y="142" width="150" height="75" as="geometry" />
        </mxCell>
        <mxCell id="1Rn5REZnz-L7d858gdaj-10" value="" style="edgeStyle=orthogonalEdgeStyle;rounded=0;orthogonalLoop=1;jettySize=auto;html=1;" edge="1" parent="1" source="1Rn5REZnz-L7d858gdaj-4" target="1Rn5REZnz-L7d858gdaj-9">
          <mxGeometry relative="1" as="geometry" />
        </mxCell>
        <mxCell id="1Rn5REZnz-L7d858gdaj-4" value="&lt;div&gt;Jira Ticket&lt;br&gt;&lt;/div&gt;&lt;div&gt;&amp;lt;FixVersion&amp;gt;&lt;/div&gt;" style="html=1;outlineConnect=0;whiteSpace=wrap;fillColor=#d5e8d4;shape=mxgraph.archimate3.businessObject;overflow=fill;strokeColor=#82b366;" vertex="1" parent="1">
          <mxGeometry x="160" y="255" width="150" height="75" as="geometry" />
        </mxCell>
        <mxCell id="1Rn5REZnz-L7d858gdaj-6" value="&lt;div&gt;Release&lt;br&gt;&lt;/div&gt;&lt;div&gt;&amp;lt;FixVersion&amp;gt;&lt;/div&gt;" style="html=1;outlineConnect=0;whiteSpace=wrap;fillColor=#d5e8d4;shape=mxgraph.archimate3.businessObject;overflow=fill;strokeColor=#82b366;" vertex="1" parent="1">
          <mxGeometry x="160" y="470" width="190" height="130" as="geometry" />
        </mxCell>
        <mxCell id="1Rn5REZnz-L7d858gdaj-7" value="&lt;div&gt;Change Request&lt;br&gt;&lt;/div&gt;&lt;div&gt;&lt;br&gt;&lt;/div&gt;" style="html=1;outlineConnect=0;whiteSpace=wrap;fillColor=#d5e8d4;shape=mxgraph.archimate3.businessObject;overflow=fill;strokeColor=#82b366;" vertex="1" parent="1">
          <mxGeometry x="180" y="510" width="150" height="75" as="geometry" />
        </mxCell>
        <mxCell id="1Rn5REZnz-L7d858gdaj-11" value="" style="edgeStyle=orthogonalEdgeStyle;rounded=0;orthogonalLoop=1;jettySize=auto;html=1;" edge="1" parent="1" source="1Rn5REZnz-L7d858gdaj-9" target="1Rn5REZnz-L7d858gdaj-6">
          <mxGeometry relative="1" as="geometry" />
        </mxCell>
        <mxCell id="1Rn5REZnz-L7d858gdaj-9" value="DevOps Interface" style="html=1;outlineConnect=0;whiteSpace=wrap;fillColor=#dae8fc;shape=mxgraph.archimate3.application;appType=interface;archiType=square;fontSize=11;strokeColor=#6c8ebf;" vertex="1" parent="1">
          <mxGeometry x="160" y="360" width="150" height="75" as="geometry" />
        </mxCell>
      </root>
    </mxGraphModel>
  </diagram>
</mxfile>
